<?xml version="1.0" encoding="UTF-8"?><svg id="Layer_1" xmlns="http://www.w3.org/2000/svg" viewBox="0 0 512 512"><defs><style>.cls-1{fill:#fff;}</style></defs><path class="cls-1" d="M196.2,85.16c13.1,0,26.09,3.5,37.57,10.13l172.54,99.61c17.44,10.07,29.92,26.33,35.13,45.78,5.21,19.45,2.54,39.77-7.53,57.22l-52.67,91.22c-13.43,23.27-38.51,37.72-65.43,37.72-13.11,0-26.1-3.5-37.57-10.13l-172.54-99.61c-17.44-10.07-29.92-26.33-35.13-45.78-5.21-19.45-2.54-39.77,7.53-57.22l52.67-91.22c13.43-23.27,38.51-37.72,65.43-37.72h0m0-63.97c-48.17,0-95.02,25-120.83,69.71L22.7,182.12c-38.49,66.66-15.65,151.9,51.02,190.39l172.54,99.61c21.95,12.67,45.91,18.7,69.56,18.7,48.17,0,95.02-25,120.83-69.71l52.67-91.22c38.49-66.66,15.65-151.9-51.02-190.39L265.75,39.88c-21.95-12.67-45.91-18.7-69.56-18.7h0Z"/><rect class="cls-1" x="187" y="211.99" width="51.18" height="88.03"/><rect class="cls-1" x="274" y="211.99" width="51.18" height="88.03"/><circle class="cls-1" cx="386.6" cy="256" r="27.72"/><circle class="cls-1" cx="125.59" cy="256" r="27.72"/></svg>