<?xml version="1.0" encoding="UTF-8"?><svg id="Layer_1" xmlns="http://www.w3.org/2000/svg" viewBox="0 0 1446.56 322.97"><defs><style>.cls-1{fill:#fff;}</style></defs><g><path class="cls-1" d="M132.18,44c9.01,0,17.94,2.41,25.83,6.96l118.65,68.5c12,6.93,20.58,18.11,24.16,31.49,3.58,13.38,1.75,27.35-5.18,39.35l-36.22,62.73c-9.24,16-26.48,25.94-45,25.94-9.01,0-17.95-2.41-25.84-6.96l-118.65-68.5c-12-6.93-20.58-18.11-24.16-31.49-3.58-13.38-1.75-27.35,5.18-39.35l36.22-62.73c9.24-16,26.48-25.94,45-25.94h0M132.17,0C99.05,0,66.83,17.19,49.08,47.94L12.86,110.67C-13.61,156.52,2.1,215.14,47.94,241.61l118.65,68.5c15.1,8.72,31.57,12.86,47.84,12.86,33.12,0,65.35-17.19,83.1-47.94l36.22-62.73c26.47-45.84,10.76-104.47-35.08-130.93L180.01,12.86C164.91,4.14,148.44,0,132.17,0h0Z"/><rect class="cls-1" x="125.85" y="131.22" width="35.2" height="60.54"/><rect class="cls-1" x="185.68" y="131.22" width="35.2" height="60.54"/><circle class="cls-1" cx="263.12" cy="161.49" r="19.06"/><circle class="cls-1" cx="83.62" cy="161.49" r="19.06"/></g><g><path class="cls-1" d="M526.88,169.27c4.65,6.05,6.97,12.96,6.97,20.72,0,11.46-3.95,20.44-11.84,26.93-7.9,6.49-18.97,9.74-33.23,9.74h-66.65V92.01h64.55c13.75,0,24.54,3.06,32.37,9.17,7.83,6.11,11.75,14.71,11.75,25.78,0,7.9-2.07,14.48-6.21,19.77-4.14,5.28-9.64,8.88-16.52,10.79,7.89,1.78,14.16,5.7,18.81,11.75Zm-67.32-23.78h18.91c9.42,0,14.13-3.88,14.13-11.65s-4.71-12.03-14.13-12.03h-18.91v23.68Zm35.91,39.15c0-4.07-1.24-7.19-3.72-9.36-2.48-2.16-6.02-3.25-10.6-3.25h-21.58v24.45h21.77c9.42,0,14.13-3.94,14.13-11.84Z"/><path class="cls-1" d="M553.23,104.14c-4.01-3.63-6.02-8.18-6.02-13.66s2.01-10.25,6.02-13.94c4.01-3.69,9.33-5.54,15.95-5.54s11.75,1.85,15.76,5.54c4.01,3.69,6.02,8.34,6.02,13.94s-2.01,10.03-6.02,13.66c-4.01,3.63-9.26,5.44-15.76,5.44s-11.94-1.81-15.95-5.44Zm34.47,15.37v107.14h-37.43V119.51h37.43Z"/><path class="cls-1" d="M672.31,194.76v31.89h-16.23c-27.38,0-41.06-13.56-41.06-40.68v-35.33h-13.18v-31.13h13.18v-25.97h37.62v25.97h19.48v31.13h-19.48v35.91c0,2.93,.67,5.03,2,6.3,1.34,1.27,3.6,1.91,6.78,1.91h10.89Z"/><path class="cls-1" d="M709.26,223.12c-7.58-3.25-13.56-7.7-17.95-13.37-4.39-5.66-6.85-12.06-7.35-19.19h36.29c.51,3.44,2.1,6.11,4.77,8.02,2.67,1.91,5.98,2.86,9.93,2.86,3.06,0,5.47-.64,7.26-1.91,1.78-1.27,2.67-2.93,2.67-4.97,0-2.67-1.46-4.65-4.39-5.92-2.93-1.27-7.77-2.67-14.52-4.2-7.64-1.53-14.01-3.25-19.1-5.16-5.09-1.91-9.52-5.03-13.27-9.36-3.76-4.33-5.63-10.18-5.63-17.57,0-6.37,1.72-12.13,5.16-17.28,3.44-5.16,8.5-9.26,15.18-12.32s14.74-4.58,24.16-4.58c14,0,25.02,3.44,33.04,10.31s12.67,15.92,13.94,27.12h-33.8c-.64-3.44-2.13-6.08-4.49-7.93-2.36-1.85-5.51-2.77-9.45-2.77-3.06,0-5.38,.57-6.97,1.72-1.59,1.15-2.39,2.74-2.39,4.77,0,2.55,1.46,4.49,4.39,5.82,2.93,1.34,7.64,2.71,14.13,4.11,7.76,1.66,14.23,3.5,19.39,5.54,5.16,2.04,9.67,5.32,13.56,9.84,3.88,4.52,5.83,10.67,5.83,18.43,0,6.24-1.81,11.84-5.44,16.81-3.63,4.97-8.79,8.88-15.47,11.75-6.68,2.86-14.55,4.3-23.59,4.3-9.68,0-18.3-1.62-25.88-4.87Z"/><path class="cls-1" d="M937.01,226.66l-10.89-10.31c-12.1,8.28-26.55,12.41-43.35,12.41-10.57,0-19.77-1.72-27.6-5.16s-13.88-8.28-18.14-14.52c-4.27-6.24-6.4-13.43-6.4-21.58s2.13-15.57,6.4-22.25c4.26-6.68,10.66-12.13,19.19-16.33-3.18-4.07-5.48-7.96-6.88-11.65-1.4-3.69-2.1-7.64-2.1-11.84,0-6.62,1.72-12.67,5.16-18.14,3.44-5.47,8.5-9.84,15.18-13.08,6.68-3.25,14.61-4.87,23.78-4.87s17.19,1.69,23.68,5.06c6.49,3.37,11.36,7.83,14.61,13.37,3.25,5.54,4.8,11.55,4.68,18.05h-34.57c0-2.93-.83-5.16-2.48-6.68-1.66-1.53-3.69-2.29-6.11-2.29-2.55,0-4.68,.73-6.4,2.2-1.72,1.46-2.58,3.47-2.58,6.02,0,4.46,3.18,9.87,9.55,16.23l31.51,30.75c1.15-2.29,2.36-5.03,3.63-8.21l3.82-6.88h37.05l-5.54,10.7c-4.58,10.95-9.61,20.18-15.09,27.69l32.09,31.32h-42.21Zm-33.8-32.28l-26.55-25.4c-3.31,2.04-5.79,4.39-7.45,7.07-1.66,2.67-2.48,5.41-2.48,8.21,0,4.08,1.65,7.51,4.97,10.31,3.31,2.8,7.83,4.2,13.56,4.2,6.75,0,12.73-1.46,17.95-4.39Z"/><path class="cls-1" d="M1131.15,169.27c4.65,6.05,6.97,12.96,6.97,20.72,0,11.46-3.95,20.44-11.84,26.93-7.9,6.49-18.97,9.74-33.23,9.74h-66.65V92.01h64.55c13.75,0,24.54,3.06,32.37,9.17,7.83,6.11,11.75,14.71,11.75,25.78,0,7.9-2.07,14.48-6.21,19.77-4.14,5.28-9.64,8.88-16.52,10.79,7.89,1.78,14.16,5.7,18.81,11.75Zm-67.32-23.78h18.91c9.42,0,14.13-3.88,14.13-11.65s-4.71-12.03-14.13-12.03h-18.91v23.68Zm35.91,39.15c0-4.07-1.24-7.19-3.72-9.36-2.48-2.16-6.02-3.25-10.6-3.25h-21.58v24.45h21.77c9.42,0,14.13-3.94,14.13-11.84Z"/><path class="cls-1" d="M1175.65,221.31c-8.47-4.46-15.12-10.82-19.96-19.1-4.84-8.27-7.26-18.02-7.26-29.22s2.45-20.75,7.35-29.03c4.9-8.27,11.58-14.64,20.05-19.1,8.47-4.46,18.05-6.68,28.74-6.68s20.27,2.23,28.74,6.68c8.47,4.46,15.15,10.82,20.05,19.1,4.9,8.28,7.35,17.95,7.35,29.03s-2.45,20.79-7.35,29.12c-4.9,8.34-11.62,14.74-20.15,19.19-8.53,4.46-18.14,6.68-28.84,6.68s-20.28-2.23-28.74-6.68Zm41.83-31.61c3.5-3.88,5.25-9.45,5.25-16.71s-1.75-12.8-5.25-16.62c-3.5-3.82-7.8-5.73-12.89-5.73s-9.36,1.91-12.8,5.73-5.16,9.36-5.16,16.62,1.65,12.99,4.97,16.81c3.31,3.82,7.57,5.73,12.8,5.73s9.58-1.94,13.08-5.83Z"/><path class="cls-1" d="M1339.23,194.76v31.89h-16.23c-27.38,0-41.06-13.56-41.06-40.68v-35.33h-13.18v-31.13h13.18v-25.97h37.62v25.97h19.48v31.13h-19.48v35.91c0,2.93,.67,5.03,2,6.3,1.34,1.27,3.6,1.91,6.78,1.91h10.89Z"/><path class="cls-1" d="M1376.18,223.12c-7.58-3.25-13.56-7.7-17.95-13.37-4.39-5.66-6.85-12.06-7.35-19.19h36.29c.51,3.44,2.1,6.11,4.77,8.02,2.67,1.91,5.98,2.86,9.93,2.86,3.06,0,5.47-.64,7.26-1.91,1.78-1.27,2.67-2.93,2.67-4.97,0-2.67-1.47-4.65-4.39-5.92-2.93-1.27-7.77-2.67-14.52-4.2-7.64-1.53-14.01-3.25-19.1-5.16-5.09-1.91-9.52-5.03-13.27-9.36-3.76-4.33-5.63-10.18-5.63-17.57,0-6.37,1.72-12.13,5.16-17.28,3.44-5.16,8.5-9.26,15.18-12.32,6.68-3.06,14.74-4.58,24.16-4.58,14.01,0,25.02,3.44,33.04,10.31,8.02,6.88,12.67,15.92,13.94,27.12h-33.8c-.64-3.44-2.13-6.08-4.49-7.93-2.36-1.85-5.51-2.77-9.45-2.77-3.06,0-5.38,.57-6.97,1.72-1.59,1.15-2.39,2.74-2.39,4.77,0,2.55,1.46,4.49,4.39,5.82,2.93,1.34,7.64,2.71,14.13,4.11,7.76,1.66,14.23,3.5,19.39,5.54,5.16,2.04,9.67,5.32,13.56,9.84,3.88,4.52,5.83,10.67,5.83,18.43,0,6.24-1.82,11.84-5.44,16.81s-8.79,8.88-15.47,11.75c-6.68,2.86-14.55,4.3-23.59,4.3-9.68,0-18.31-1.62-25.88-4.87Z"/></g></svg>